<?xml version="1.0" encoding="utf-8"?>
<!-- Generator: Adobe Illustrator 16.0.0, SVG Export Plug-In . SVG Version: 6.00 Build 0)  -->
<!DOCTYPE svg PUBLIC "-//W3C//DTD SVG 1.1//EN" "http://www.w3.org/Graphics/SVG/1.1/DTD/svg11.dtd">
<svg version="1.1" id="Layer_1" xmlns="http://www.w3.org/2000/svg" xmlns:xlink="http://www.w3.org/1999/xlink" x="0px" y="0px"
	 width="25px" height="25px" viewBox="0 0 25 25" enable-background="new 0 0 25 25" xml:space="preserve">
<g>
	<path fill="rgb(255,255,255)" d="M17.803,15.745c-0.004-0.004-0.009-0.009-0.012-0.015c6.436-6.66,7.851-14.501,6.986-15.378
		c-1.043-1.057-8.787,0.479-15.473,6.78C9.3,7.127,9.293,7.122,9.287,7.115L9.286,7.113C8.291,6.106,6.813,5.948,5.813,6.952
		l-5.226,5.247c-0.999,1.004-0.71,2.167,0.644,2.584l0.67,0.204c1.289,0.397,3.091-0.019,4.125-0.928
		c0.307,1.063,1.021,2.009,1.91,2.912c0.889,0.899,1.824,1.625,2.877,1.945c-0.92,1.022-1.359,2.817-0.981,4.11l0.197,0.67
		c0.399,1.36,1.559,1.665,2.576,0.679l5.315-5.156c1.018-0.986,0.879-2.463-0.115-3.474L17.803,15.745z M16.891,4.284
		c1.006-0.993,2.627-0.982,3.62,0.022c0.992,1.007,0.982,2.627-0.024,3.622c-1.006,0.992-2.628,0.981-3.62-0.024
		C15.872,6.899,15.884,5.277,16.891,4.284z"/>
	<path fill="rgb(255,255,255)" d="M6.673,18.217c-0.817-0.826-1.508-1.685-1.975-2.597c-0.121,0.075-0.239,0.158-0.343,0.262
		c-0.987,0.974-0.778,2.805,0.469,4.067c1.245,1.262,3.073,1.495,4.061,0.521c0.094-0.094,0.167-0.201,0.24-0.31
		C8.263,19.686,7.454,19.007,6.673,18.217z"/>
</g>
</svg>
