<?xml version="1.0" encoding="utf-8"?>
<!-- Generator: Adobe Illustrator 16.0.0, SVG Export Plug-In . SVG Version: 6.00 Build 0)  -->
<!DOCTYPE svg PUBLIC "-//W3C//DTD SVG 1.1//EN" "http://www.w3.org/Graphics/SVG/1.1/DTD/svg11.dtd">
<svg version="1.1" id="Layer_1" xmlns="http://www.w3.org/2000/svg" xmlns:xlink="http://www.w3.org/1999/xlink" x="0px" y="0px"
	 width="25px" height="25px" viewBox="0 0 25 25" enable-background="new 0 0 25 25" xml:space="preserve">
<g>
	<g>
		<path fill="rgb(255,255,255)" d="M18.81,12.656c-3.45,0-6.192,2.723-6.192,6.149s2.742,6.148,6.192,6.148c3.37,0,6.193-2.723,6.193-6.148
			C24.924,15.379,22.18,12.656,18.81,12.656z M21.632,17.715l-3.136,3.113c-0.156,0.156-0.393,0.234-0.549,0.234
			s-0.391-0.078-0.548-0.234l-1.568-1.557c-0.313-0.311-0.313-0.777,0-1.09c0.313-0.311,0.784-0.311,1.098,0l1.019,1.012
			l2.587-2.568c0.313-0.311,0.783-0.311,1.098,0C21.944,16.938,21.944,17.404,21.632,17.715z"/>
	</g>
	<g>
		<path fill="rgb(255,255,255)" d="M15.675,0.047H2.349c-1.333,0-2.352,1.09-2.352,2.335v18.681c0,1.322,1.019,2.334,2.352,2.334h10.19
			c-0.94-1.244-1.568-2.881-1.568-4.592c0-0.311,0-0.545,0.079-0.857H3.917c-0.471,0-0.783-0.311-0.783-0.777
			c0-0.389,0.313-0.777,0.783-0.777h7.525c0.158-0.547,0.392-1.09,0.706-1.559h-8.23c-0.471,0-0.783-0.311-0.783-0.777
			c0-0.391,0.313-0.779,0.783-0.779h9.485c1.254-1.166,2.823-1.945,4.624-2.177V2.382C18.025,1.137,16.929,0.047,15.675,0.047z
			 M3.917,3.939h6.271c0.392,0,0.783,0.389,0.783,0.778c0,0.467-0.392,0.779-0.783,0.779H3.917c-0.471,0-0.783-0.312-0.783-0.779
			C3.133,4.328,3.446,3.939,3.917,3.939z M14.106,11.722H3.917c-0.471,0-0.783-0.311-0.783-0.778c0-0.389,0.313-0.778,0.783-0.778
			h10.19c0.393,0,0.785,0.389,0.785,0.778C14.892,11.411,14.499,11.722,14.106,11.722z M14.106,8.608H3.917
			c-0.471,0-0.783-0.311-0.783-0.778c0-0.39,0.313-0.779,0.783-0.779h10.19c0.393,0,0.785,0.389,0.785,0.779
			C14.892,8.298,14.499,8.608,14.106,8.608z"/>
	</g>
</g>
</svg>
