<?xml version="1.0" encoding="utf-8"?>
<!-- Generator: Adobe Illustrator 16.0.0, SVG Export Plug-In . SVG Version: 6.00 Build 0)  -->
<!DOCTYPE svg PUBLIC "-//W3C//DTD SVG 1.1//EN" "http://www.w3.org/Graphics/SVG/1.1/DTD/svg11.dtd">
<svg version="1.1" id="Layer_1" xmlns="http://www.w3.org/2000/svg" xmlns:xlink="http://www.w3.org/1999/xlink" x="0px" y="0px"
	 width="25px" height="25px" viewBox="0 0 25 25" enable-background="new 0 0 25 25" xml:space="preserve">
<g>
	<path fill="rgb(255,255,255)" d="M24.881,12.522l-0.96,1.229c-0.076,0.099-0.203,0.165-0.325,0.182H23.55c-0.123,0-0.234-0.032-0.327-0.116
		L12.5,4.232L1.779,13.817c-0.108,0.084-0.234,0.133-0.372,0.116c-0.123-0.017-0.25-0.083-0.326-0.184l-0.96-1.228
		c-0.172-0.219-0.141-0.568,0.062-0.749l11.139-9.951c0.652-0.58,1.708-0.58,2.356,0l3.782,3.39V1.971
		c0-0.297,0.216-0.531,0.495-0.531h2.973c0.281,0,0.496,0.234,0.496,0.531V8.75l3.395,3.023
		C25.02,11.954,25.05,12.304,24.881,12.522z"/>
	<path fill="rgb(255,255,255)" d="M21.461,14.576v7.974c0,0.584-0.449,1.063-0.993,1.063h-5.947v-6.379h-3.968v6.379h-5.95
		c-0.542,0-0.99-0.479-0.99-1.063v-7.974c0-0.033,0.015-0.068,0.015-0.101L12.537,6.6l8.909,7.876
		C21.461,14.508,21.461,14.543,21.461,14.576L21.461,14.576z"/>
</g>
</svg>
