<?xml version="1.0" encoding="utf-8"?>
<!-- Generator: Adobe Illustrator 16.0.0, SVG Export Plug-In . SVG Version: 6.00 Build 0)  -->
<!DOCTYPE svg PUBLIC "-//W3C//DTD SVG 1.1//EN" "http://www.w3.org/Graphics/SVG/1.1/DTD/svg11.dtd">
<svg version="1.1" id="Layer_1" xmlns="http://www.w3.org/2000/svg" xmlns:xlink="http://www.w3.org/1999/xlink" x="0px" y="0px"
	 width="25px" height="25px" viewBox="0 0 25 25" enable-background="new 0 0 25 25" xml:space="preserve">
<g>
	<path fill="rgb(255,255,255)" d="M18.75,15.456V1.052c0-0.606-0.473-1.053-1.053-1.053H2.241c-0.58,0-1.054,0.474-1.054,1.053v18.405
		c0,0.606,0.474,1.054,1.054,1.054h11.454L18.75,15.456z M5.348,3.659h9.242c0.342,0,0.633,0.29,0.633,0.632
		c0,0.343-0.291,0.633-0.633,0.633H5.348c-0.369,0-0.632-0.29-0.632-0.633C4.716,3.922,4.979,3.659,5.348,3.659z M5.348,7.635h9.242
		c0.342,0,0.633,0.29,0.633,0.632c0,0.343-0.291,0.632-0.633,0.632H5.348c-0.369,0-0.632-0.29-0.632-0.632
		C4.716,7.925,4.979,7.635,5.348,7.635z M5.348,11.637h9.242c0.342,0,0.633,0.29,0.633,0.632c0,0.343-0.291,0.632-0.633,0.632H5.348
		c-0.369,0-0.632-0.289-0.632-0.632C4.716,11.901,4.979,11.637,5.348,11.637z M4.716,16.245c0-0.342,0.263-0.633,0.632-0.633h9.242
		c0.342,0,0.633,0.291,0.633,0.633s-0.291,0.633-0.633,0.633H5.348C4.979,16.878,4.716,16.587,4.716,16.245z"/>
	
		<rect x="14.957" y="18.143" transform="matrix(-0.7071 0.7071 -0.7071 -0.7071 45.3697 20.468)" fill="#FFFFFF" width="6.979" height="2.975"/>
	<path fill="rgb(255,255,255)" d="M13.642,22.354c-0.053,0.052-0.105,0.132-0.132,0.211l-0.421,1.896c-0.079,0.316,0.211,0.605,0.526,0.527
		l1.896-0.422c0.078-0.025,0.158-0.053,0.211-0.131l0.58-0.58l-2.107-2.107L13.642,22.354z"/>
	<path fill="rgb(255,255,255)" d="M23.675,15.878L22.2,14.401c-0.185-0.184-0.448-0.184-0.632,0l-0.975,1.002l2.106,2.105l0.975-0.973
		C23.859,16.325,23.859,16.062,23.675,15.878z"/>
</g>
</svg>
