<svg height="512" viewBox="0 0 60 53" width="512" xmlns="http://www.w3.org/2000/svg"><g id="Page-1" fill="none" fill-rule="evenodd"><g id="006---Payment-Denied" fill-rule="nonzero"><path id="Shape" d="m51 7v13.58c-5.0890075-3.175528-11.4748786-3.4340427-16.8039181-.680261-5.3290395 2.7537816-8.8123591 8.1122016-9.1660819 14.100261h-18.03c-3.3137085 0-6-2.6862915-6-6v-21c0-3.3137085 2.6862915-6 6-6h38c3.3137085 0 6 2.6862915 6 6z" fill="#02a9f4"/><path id="Shape" d="m45 1h-3c3.3137085 0 6 2.6862915 6 6v12.093c1.0470464.3944741 2.0520418.8926169 3 1.487v-13.58c0-3.3137085-2.6862915-6-6-6z" fill="#0377bc"/><rect id="Rectangle-path" fill="#ffdc00" height="8" rx="2" width="10" x="6" y="6"/><circle id="Oval" cx="43" cy="10" fill="#f5f5f5" r="3"/><circle id="Oval" cx="37" cy="10" fill="#ffdc00" r="3"/><path id="Shape" d="m59 35c0 9.3888407-7.6111593 17-17 17s-17-7.6111593-17-17c0-.33.01-.67.03-1 .5457251-9.1741636 8.2838265-16.2536052 17.4702275-15.9831783s16.494658 7.7927992 16.4997725 16.9831783z" fill="#f44335"/><path id="Shape" d="m51 20.58c-2.6958178-1.6934282-5.8164377-2.5880059-9-2.58-.505 0-1 .03-1.5.073 8.7730845.7718867 15.5017508 8.1200245 15.5 16.927-.0012281 8.8052709-6.7287385 16.1508442-15.5 16.924.495.044.994.076 1.5.076 7.5846192-.0015758 14.2506722-5.0273595 16.3392309-12.3187499s-.9056889-15.0842875-7.3392309-19.1012501z" fill="#c81e1e"/><path id="Shape" d="m50.92 42.608c-1.7009403-3.9635186-4.2120303-7.5274815-7.372-10.463 2.0681329-1.7091245 4.3608113-3.1266552 6.814-4.213.5000049-.2092525.742277-.7787576.5462669-1.2841006-.1960102-.5053429-.7589366-.7625313-1.2692669-.5798994-2.7653955 1.1867142-5.3396847 2.776647-7.639 4.718-2.2993153-1.941353-4.8736045-3.5312858-7.639-4.718-.5103303-.1826319-1.0732567.0745565-1.2692669.5798994-.1960101.505343.046262 1.0748481.5462669 1.2841006 2.4531887 1.0863448 4.7458671 2.5038755 6.814 4.213-3.1599697 2.9355185-5.6710597 6.4994814-7.372 10.463-.1039737.2439982-.1067566.5193072-.0077364.7653573.0990202.2460502.2917315.4426846.5357364.5466427.1238521.0530935.2572478.0803171.392.08.4007992.0000139.7628867-.2392787.92-.608 1.6281549-3.7696643 4.0418879-7.1485496 7.08-9.911 3.0381121 2.7624504 5.4518451 6.1413357 7.08 9.911.1571133.3687213.5192008.6080139.92.608.1347522.0003171.2681479-.0269065.392-.08.2440049-.1039581.4367162-.3005925.5357364-.5466427.0990202-.2460501.0962373-.5213591-.0077364-.7653573z" fill="#ffdc00"/><g fill="#000"><path id="Shape" d="m14 15c1.6568542 0 3-1.3431458 3-3v-4c0-1.65685425-1.3431458-3-3-3h-6c-1.65685425 0-3 1.34314575-3 3v4c0 1.6568542 1.34314575 3 3 3zm0-2h-3v-2h4v1c0 .5522847-.4477153 1-1 1zm1-5v1h-4v-2h3c.5522847 0 1 .44771525 1 1zm-7-1h1v2h-2v-1c0-.55228475.44771525-1 1-1zm-1 5v-1h2v2h-1c-.55228475 0-1-.4477153-1-1z"/><path id="Shape" d="m8 21c-.55228475 0-1 .4477153-1 1s.44771525 1 1 1h6c.5522847 0 1-.4477153 1-1s-.4477153-1-1-1z"/><path id="Shape" d="m24 21h-6c-.5522847 0-1 .4477153-1 1s.4477153 1 1 1h6c.5522847 0 1-.4477153 1-1s-.4477153-1-1-1z"/><path id="Shape" d="m10 27h-2c-.55228475 0-1 .4477153-1 1s.44771525 1 1 1h2c.5522847 0 1-.4477153 1-1s-.4477153-1-1-1z"/><path id="Shape" d="m17 27h-2c-.5522847 0-1 .4477153-1 1s.4477153 1 1 1h2c.5522847 0 1-.4477153 1-1s-.4477153-1-1-1z"/><path id="Shape" d="m37 14c1.1531473-.0035865 2.2478736-.5078904 3-1.382 1.093225 1.2628661 2.8560646 1.7134762 4.4212104 1.1301323 1.5651459-.5833438 2.6030376-2.0778115 2.6030376-3.7481323 0-1.67032082-1.0378917-3.16478849-2.6030376-3.74813234-1.5651458-.58334385-3.3279854-.13273376-4.4212104 1.13013234-1.2110928-1.38665941-3.2134336-1.76522309-4.8471665-.91640804-1.6337329.84881506-2.4750835 2.70483451-2.0366995 4.49295914.438384 1.7881246 2.0427901 3.0445323 3.883866 3.0414489zm6-6c1.1045695 0 2 .8954305 2 2s-.8954305 2-2 2-2-.8954305-2-2 .8954305-2 2-2zm-6 0c1.1045695 0 2 .8954305 2 2s-.8954305 2-2 2-2-.8954305-2-2 .8954305-2 2-2z"/><path id="Shape" d="m52 20.044v-13.044c-.0044086-3.86416566-3.1358343-6.99559136-7-7h-38c-3.86416566.00440864-6.99559136 3.13583434-7 7v21c.00440864 3.8641657 3.13583434 6.9955914 7 7h17c-.0050709 8.5887072 6.0584965 15.9845589 14.4815251 17.6633994 8.4230287 1.6788405 16.8588017-2.8270674 20.1470275-10.7613908s.5127809-17.0865023-6.6285526-21.8580086zm-45 12.956c-2.76005315-.0033061-4.99669388-2.2399468-5-5v-21c.00330612-2.76005315 2.23994685-4.99669388 5-5h38c2.7600532.00330612 4.9966939 2.23994685 5 5v11.9c-6.283305-3.1534223-13.8314844-2.3316495-19.289 2.1h-2.711c-.5522847 0-1 .4477153-1 1s.4477153 1 1 1h.622c-2.5084362 2.7809908-4.0821922 6.2782264-4.5 10zm35 18c-8.836556 0-16-7.163444-16-16s7.163444-16 16-16 16 7.163444 16 16c-.0104696 8.8322157-7.1677843 15.9895304-16 16z"/></g></g></g></svg>