<?xml version="1.0" encoding="utf-8"?>
<!-- Generator: Adobe Illustrator 16.0.0, SVG Export Plug-In . SVG Version: 6.00 Build 0)  -->
<!DOCTYPE svg PUBLIC "-//W3C//DTD SVG 1.1//EN" "http://www.w3.org/Graphics/SVG/1.1/DTD/svg11.dtd">
<svg version="1.1" id="Layer_1" xmlns="http://www.w3.org/2000/svg" xmlns:xlink="http://www.w3.org/1999/xlink" x="0px" y="0px"
	 width="25px" height="25px" viewBox="0 0 25 25" enable-background="new 0 0 25 25" xml:space="preserve">
<path fill="rgb(255,255,255)" d="M22.664-0.009h-3.127H2.336c-0.86,0-1.563,0.703-1.563,1.563v21.891c0,0.861,0.703,1.563,1.563,1.563h20.328
	c0.861,0,1.563-0.702,1.563-1.563V4.682V1.555C24.227,0.694,23.525-0.009,22.664-0.009z M7.027,17.973H5.464v-1.563h1.563V17.973z
	 M7.027,13.282H5.464v-1.564h1.563V13.282z M7.027,8.591H5.464V7.027h1.563V8.591z M19.537,17.973H9.373v-1.563h10.165V17.973z
	 M19.537,13.282H9.373v-1.564h10.165V13.282z M19.537,8.591H9.373V7.027h10.165V8.591z"/>
</svg>
