<?xml version="1.0" encoding="utf-8"?>
<!-- Generator: Adobe Illustrator 16.0.0, SVG Export Plug-In . SVG Version: 6.00 Build 0)  -->
<!DOCTYPE svg PUBLIC "-//W3C//DTD SVG 1.1//EN" "http://www.w3.org/Graphics/SVG/1.1/DTD/svg11.dtd">
<svg version="1.1" id="Layer_1" xmlns="http://www.w3.org/2000/svg" xmlns:xlink="http://www.w3.org/1999/xlink" x="0px" y="0px"
	 width="25px" height="25px" viewBox="0 0 25 25" enable-background="new 0 0 25 25" xml:space="preserve">
<path fill="rgb(255,255,255)" d="M4.153,7.492H0.259l4.45-4.449v3.893C4.709,7.243,4.46,7.492,4.153,7.492z M5.266,2.764h18.918
	c0.459,0,0.835,0.373,0.835,0.834v17.804c0,0.462-0.376,0.835-0.835,0.835H0.815c-0.461,0-0.835-0.373-0.835-0.835V8.048h4.173
	c0.614,0,1.113-0.497,1.113-1.112V2.764z M14.446,7.216v6.119h-6.12c0,3.379,2.74,6.119,6.12,6.119c3.381,0,6.121-2.74,6.121-6.119
	C20.567,9.954,17.827,7.216,14.446,7.216z M12.778,5.545c-3.381,0-6.122,2.739-6.122,6.121l0,0h6.122V5.545z"/>
</svg>
