<?xml version="1.0" encoding="utf-8"?>
<!-- Generator: Adobe Illustrator 16.0.0, SVG Export Plug-In . SVG Version: 6.00 Build 0)  -->
<!DOCTYPE svg PUBLIC "-//W3C//DTD SVG 1.1//EN" "http://www.w3.org/Graphics/SVG/1.1/DTD/svg11.dtd">
<svg version="1.1" id="Layer_1" xmlns="http://www.w3.org/2000/svg" xmlns:xlink="http://www.w3.org/1999/xlink" x="0px" y="0px"
	 width="25px" height="25px" viewBox="0 0 25 25" enable-background="new 0 0 25 25" xml:space="preserve">
<path fill="rgb(255,255,255)" d="M24.719,20.293L14.838,2.515c-0.457-0.83-1.336-1.32-2.368-1.319c-1.024,0-1.905,0.494-2.365,1.327
	L0.282,20.33H0.281c-0.423,0.762-0.38,1.602,0.12,2.32c0.499,0.736,1.313,1.141,2.255,1.154l19.693-0.033
	c0.949-0.02,1.761-0.424,2.257-1.158C25.102,21.891,25.139,21.053,24.719,20.293z M14.012,19.875
	c0.002,0.59-0.497,1.082-1.114,1.086h-0.792c-0.615,0-1.117-0.49-1.118-1.08v-0.545c0-0.596,0.5-1.078,1.115-1.078h0.791
	c0.615,0,1.115,0.479,1.115,1.078L14.012,19.875z M14.005,15.965c0,0.443-0.371,0.811-0.83,0.811l-1.353,0.004
	c-0.461,0-0.837-0.363-0.837-0.813l-0.016-9.116c0-0.447,0.376-0.815,0.837-0.815l1.351-0.003c0.458,0,0.833,0.364,0.835,0.814
	L14.005,15.965z"/>
</svg>
