<?xml version="1.0" encoding="utf-8"?>
<!-- Generator: Adobe Illustrator 16.0.0, SVG Export Plug-In . SVG Version: 6.00 Build 0)  -->
<!DOCTYPE svg PUBLIC "-//W3C//DTD SVG 1.1//EN" "http://www.w3.org/Graphics/SVG/1.1/DTD/svg11.dtd">
<svg version="1.1" id="Layer_1" xmlns="http://www.w3.org/2000/svg" xmlns:xlink="http://www.w3.org/1999/xlink" x="0px" y="0px"
	 width="25px" height="25px" viewBox="0 0 25 25" enable-background="new 0 0 25 25" xml:space="preserve">
<path fill="rgb(255,255,255)" d="M25.06,21.927c0,1.732-5.61,3.133-12.53,3.133S0,23.659,0,21.927c0-1.459,3.996-2.681,9.397-3.027v1.572
	c-3.784,0.254-6.33,0.919-7.406,1.455c1.352,0.672,4.989,1.566,10.538,1.566c5.546,0,9.186-0.895,10.536-1.566
	c-1.074-0.536-3.622-1.201-7.403-1.455v-1.572C21.063,19.246,25.06,20.468,25.06,21.927z M6.265,12.53h4.699v7.832
	c0,0.864,0.701,1.565,1.566,1.565c0.865,0,1.566-0.701,1.566-1.565V12.53h4.699c0-1.579-0.604-3.003-1.566-4.104V3.132h1.566V0
	h-1.566H7.831H6.265v3.132h1.566v5.294C6.868,9.527,6.265,10.951,6.265,12.53z"/>
</svg>
