<?xml version="1.0" encoding="utf-8"?>
<!-- Generator: Adobe Illustrator 16.0.0, SVG Export Plug-In . SVG Version: 6.00 Build 0)  -->
<!DOCTYPE svg PUBLIC "-//W3C//DTD SVG 1.1//EN" "http://www.w3.org/Graphics/SVG/1.1/DTD/svg11.dtd">
<svg version="1.1" id="Layer_1" xmlns="http://www.w3.org/2000/svg" xmlns:xlink="http://www.w3.org/1999/xlink" x="0px" y="0px"
	 width="25px" height="25px" viewBox="0 0 25 25" enable-background="new 0 0 25 25" xml:space="preserve">
<g>
	<polygon fill="rgb(255,255,255)" points="1.145,0 1.145,25 8.686,25 8.686,19.358 4.043,19.358 4.043,17.438 8.686,17.438 8.686,13.222 
		4.043,13.222 4.043,11.301 8.686,11.301 8.686,7.323 4.043,7.323 4.043,5.401 8.686,5.401 8.686,5.386 18.354,5.386 18.354,0 	"/>
	<path fill="rgb(255,255,255)" d="M9.957,6.658V25h13.898V6.658H9.957z M21.105,21.313h-8.398v-1.92h8.398V21.313z M21.105,16.821h-8.398
		v-1.92h8.398V16.821z M21.105,12.265h-8.398v-1.921h8.398V12.265z"/>
</g>
</svg>
