<?xml version="1.0" encoding="utf-8"?>
<!-- Generator: Adobe Illustrator 16.0.0, SVG Export Plug-In . SVG Version: 6.00 Build 0)  -->
<!DOCTYPE svg PUBLIC "-//W3C//DTD SVG 1.1//EN" "http://www.w3.org/Graphics/SVG/1.1/DTD/svg11.dtd">
<svg version="1.1" id="Layer_1" xmlns="http://www.w3.org/2000/svg" xmlns:xlink="http://www.w3.org/1999/xlink" x="0px" y="0px"
	 width="16px" height="16px" viewBox="0 0 16 16" enable-background="new 0 0 16 16" xml:space="preserve">
<path fill="rgb(245,139,139)" d="M15.984,13.988c0,1.104-3.575,1.996-7.984,1.996s-7.984-0.893-7.984-1.996c0-0.93,2.546-1.708,5.988-1.93
	v1.002c-2.411,0.162-4.033,0.586-4.719,0.928C2.146,14.417,4.464,14.986,8,14.986c3.534,0,5.854-0.569,6.714-0.998
	c-0.685-0.342-2.309-0.766-4.718-0.928v-1.002C13.438,12.28,15.984,13.059,15.984,13.988z M4.008,8h2.994v4.99
	c0,0.551,0.447,0.998,0.998,0.998c0.551,0,0.998-0.447,0.998-0.998V8h2.994c0-1.006-0.385-1.914-0.998-2.615V2.012h0.998V0.016
	h-0.998H5.006H4.008v1.996h0.998v3.374C4.392,6.086,4.008,6.994,4.008,8z"/>
</svg>
