<?xml version="1.0" encoding="utf-8"?>
<!-- Generator: Adobe Illustrator 16.0.0, SVG Export Plug-In . SVG Version: 6.00 Build 0)  -->
<!DOCTYPE svg PUBLIC "-//W3C//DTD SVG 1.1//EN" "http://www.w3.org/Graphics/SVG/1.1/DTD/svg11.dtd">
<svg version="1.1" id="Layer_1" xmlns="http://www.w3.org/2000/svg" xmlns:xlink="http://www.w3.org/1999/xlink" x="0px" y="0px"
	 width="16px" height="16px" viewBox="0 0 16 16" enable-background="new 0 0 16 16" xml:space="preserve">
<g>
	<polygon fill="rgb(245,139,139)" points="0.732,0 0.732,16 5.559,16 5.559,12.39 2.587,12.39 2.587,11.16 5.559,11.16 5.559,8.462 
		2.587,8.462 2.587,7.233 5.559,7.233 5.559,4.687 2.587,4.687 2.587,3.457 5.559,3.457 5.559,3.447 11.747,3.447 11.747,0 	"/>
	<path fill="#FFFFFF" d="M6.373,4.261V16h8.895V4.261H6.373z M13.507,13.641H8.132v-1.229h5.375V13.641z M13.507,10.767H8.132V9.537
		h5.375V10.767z M13.507,7.85H8.132V6.62h5.375V7.85z"/>
</g>
</svg>