<?xml version="1.0" encoding="utf-8"?>
<!-- Generator: Adobe Illustrator 16.0.0, SVG Export Plug-In . SVG Version: 6.00 Build 0)  -->
<!DOCTYPE svg PUBLIC "-//W3C//DTD SVG 1.1//EN" "http://www.w3.org/Graphics/SVG/1.1/DTD/svg11.dtd">
<svg version="1.1" id="Layer_1" xmlns="http://www.w3.org/2000/svg" xmlns:xlink="http://www.w3.org/1999/xlink" x="0px" y="0px"
	 width="16px" height="16px" viewBox="0 0 16 16" enable-background="new 0 0 16 16" xml:space="preserve">
<path fill="rgb(245,139,139)" d="M14.5,0h-2h-11c-0.55,0-1,0.45-1,1v14c0,0.551,0.45,1,1,1h13c0.551,0,1-0.449,1-1V3V1
	C15.5,0.45,15.051,0,14.5,0z M4.5,11.5h-1v-1h1V11.5z M4.5,8.5h-1v-1h1V8.5z M4.5,5.5h-1v-1h1V5.5z M12.5,11.5H6v-1h6.5V11.5z
	 M12.5,8.5H6v-1h6.5V8.5z M12.5,5.5H6v-1h6.5V5.5z"/>
</svg>
