<?xml version="1.0" encoding="utf-8"?>
<!-- Generator: Adobe Illustrator 16.0.0, SVG Export Plug-In . SVG Version: 6.00 Build 0)  -->
<!DOCTYPE svg PUBLIC "-//W3C//DTD SVG 1.1//EN" "http://www.w3.org/Graphics/SVG/1.1/DTD/svg11.dtd">
<svg version="1.1" id="Layer_1" xmlns="http://www.w3.org/2000/svg" xmlns:xlink="http://www.w3.org/1999/xlink" x="0px" y="0px"
	 width="16px" height="16px" viewBox="0 0 16 16" enable-background="new 0 0 16 16" xml:space="preserve">
<path fill="rgb(245,139,139)" d="M2.669,4.802H0.182L3.024,1.96v2.486C3.024,4.643,2.865,4.802,2.669,4.802z M3.38,1.781h12.083
	c0.293,0,0.533,0.238,0.533,0.533v11.371c0,0.295-0.24,0.533-0.533,0.533H0.537c-0.294,0-0.533-0.238-0.533-0.533V5.156h2.665
	c0.393,0,0.711-0.317,0.711-0.71V1.781z M9.243,4.625v3.908H5.334c0,2.158,1.75,3.908,3.909,3.908c2.159,0,3.909-1.75,3.909-3.908
	C13.152,6.374,11.402,4.625,9.243,4.625z M8.178,3.558c-2.159,0-3.91,1.75-3.91,3.91l0,0h3.91V3.558z"/>
</svg>
